; NON-PLATED HOLES START AT T1
; THROUGH (PLATED) HOLES START AT T100
M48
INCH
T1C0.086614
T100C0.015748
T101C0.043307
%
T1
X032413Y000696
X000702Y000618
X000703Y019018
X032413Y019018
T100
X004813Y018218
X015813Y018218
X026813Y018218
T101
X006013Y004218
X024813Y016018
X013813Y016018
X002013Y003218
X010613Y012018
X008013Y004218
X001813Y016018
X016813Y016018
X014613Y012018
X006013Y003218
X025813Y005018
X008613Y006018
X027813Y016018
X010613Y006018
X015613Y012018
X017613Y012018
X016613Y006018
X028813Y016018
X003813Y016018
X012813Y016018
X019613Y012018
X013613Y012018
X015613Y006018
X022613Y012018
X016613Y012018
X016613Y002418
X005013Y004218
X018613Y012018
X022613Y006018
X013613Y006018
X012613Y006018
X014813Y016018
X013613Y004218
X018613Y006018
X017613Y006018
X025813Y016018
X014613Y004218
X014613Y002418
X030013Y002618
X016613Y004218
X015813Y016018
X012613Y004218
X012613Y012018
X031013Y002618
X010013Y004218
X001013Y003218
X002013Y004218
X010013Y003218
X019613Y006018
X008613Y012018
X007013Y004218
X003013Y004218
X011613Y002418
X001013Y004218
X009013Y004218
X009013Y003218
X004013Y004218
X009613Y006018
X017813Y016018
X004013Y003218
X011613Y012018
X021613Y006018
X005813Y016018
X011613Y004218
X015613Y002418
X002813Y016018
X021613Y012018
X020613Y012018
X003013Y003218
X015613Y004218
X007013Y003218
X005013Y003218
X012613Y002418
X026813Y005018
X008013Y003218
X011613Y006018
X004813Y016018
X013613Y002418
X023813Y016018
X014613Y006018
X009613Y012018
X026813Y016018
X020613Y006018
X006813Y016018
T00
M30
